<svg width="22" height="22" viewBox="0 0 22 22" fill="none" xmlns="http://www.w3.org/2000/svg">
<path d="M20.75 10.75C20.75 16.2728 16.2728 20.75 10.75 20.75M20.75 10.75C20.75 5.22715 16.2728 0.75 10.75 0.75M20.75 10.75H0.75M10.75 20.75C5.22715 20.75 0.75 16.2728 0.75 10.75M10.75 20.75C13.2513 18.0116 14.6728 14.458 14.75 10.75C14.6728 7.04203 13.2513 3.48835 10.75 0.75M10.75 20.75C8.24872 18.0116 6.82725 14.458 6.75 10.75C6.82725 7.04203 8.24872 3.48835 10.75 0.75M0.75 10.75C0.75 5.22715 5.22715 0.75 10.75 0.75" stroke="#00025A" stroke-width="1.5" stroke-linecap="round" stroke-linejoin="round"/>
</svg>
